<?xml version="1.0" encoding="UTF-8"?>

<!DOCTYPE svg>

<svg version="1.1" xmlns="http://www.w3.org/2000/svg" viewBox="0 0 21.2098 20.8644" preserveAspectRatio="xMinYMin meet">
    <g>
        <rect height="20.8644" opacity="0" width="21.2098" x="0" y="0"/>

        <path class="fill primary" d="M0 10.4291C0 11.0943 0.555464 11.64 1.21893 11.64L9.2084 11.64L9.2084 19.6295C9.2084 20.293 9.75586 20.8484 10.4193 20.8484C11.0926 20.8484 11.64 20.293 11.64 19.6295L11.64 11.64L19.6295 11.64C20.293 11.64 20.8484 11.0943 20.8484 10.4291C20.8484 9.75586 20.293 9.21016 19.6295 9.21016L11.64 9.21016L11.64 1.22069C11.64 0.555464 11.0926 0 10.4193 0C9.75586 0 9.2084 0.555464 9.2084 1.22069L9.2084 9.21016L1.21893 9.21016C0.555464 9.21016 0 9.75586 0 10.4291Z"/>
    </g>
</svg>
