<?xml version="1.0" encoding="UTF-8"?>

<!DOCTYPE svg>

<svg version="1.1" xmlns="http://www.w3.org/2000/svg" viewBox="0 0 32.8035 24.8238" preserveAspectRatio="xMinYMin meet">
    <g>
        <rect height="23.8238" opacity="0" width="32.8035" x="0" y="0"/>

        <path class="fill primary" d="M26.0855 23.8156L29.3822 23.8156C31.3613 23.8156 32.4422 22.7969 32.4422 20.8869L32.4422 2.9287C32.4422 1.0205 31.3613 0 29.3822 0L26.0855 0C24.1064 0 23.0336 1.0205 23.0336 2.93046L23.0336 20.8869C23.0336 22.7969 24.1064 23.8156 26.0855 23.8156ZM26.4125 21.8561C25.4871 21.8561 25.1152 21.4859 25.1152 20.5721L25.1152 3.2453C25.1152 2.33143 25.4871 1.95956 26.4125 1.95956L29.0633 1.95956C29.9887 1.95956 30.3605 2.33143 30.3605 3.2453L30.3605 20.5721C30.3605 21.4859 29.9887 21.8561 29.0597 21.8561Z"/>

        <path class="fill primary" d="M14.5638 23.8156L17.8605 23.8156C19.8476 23.8156 20.9222 22.7969 20.9222 20.8869L20.9222 6.59882C20.9222 4.69062 19.8476 3.66387 17.8605 3.66387L14.5638 3.66387C12.5847 3.66387 11.5199 4.69062 11.5199 6.60233L11.5199 20.8869C11.5199 22.7969 12.5847 23.8156 14.5638 23.8156ZM14.9006 21.8561C13.9752 21.8561 13.6033 21.4859 13.6033 20.5721L13.6033 6.91542C13.6033 6.00155 13.9752 5.62167 14.9006 5.62167L17.5416 5.62167C18.467 5.62167 18.8406 6.00155 18.8406 6.91542L18.8406 20.5721C18.8406 21.4859 18.467 21.8561 17.5398 21.8561Z"/>

        <path class="fill primary" d="M3.05194 23.8156L6.34863 23.8156C8.32772 23.8156 9.40858 22.7969 9.40858 20.8869L9.40858 10.251C9.40858 8.34101 8.32772 7.32226 6.34863 7.32226L3.05194 7.32226C1.06484 7.32226 0 8.34101 0 10.2527L0 20.8869C0 22.7969 1.06484 23.8156 3.05194 23.8156ZM3.38065 21.8561C2.45526 21.8561 2.08163 21.4859 2.08163 20.5721L2.08163 10.5676C2.08163 9.6537 2.45526 9.28182 3.38065 9.28182L6.02969 9.28182C6.95508 9.28182 7.32695 9.6537 7.32695 10.5676L7.32695 20.5721C7.32695 21.4859 6.95508 21.8561 6.02793 21.8561Z"/>
    </g>
</svg>
