<?xml version="1.0" encoding="UTF-8"?>

<!DOCTYPE svg>

<svg version="1.1" xmlns="http://www.w3.org/2000/svg" viewBox="0 0 20.2832 19.9316" preserveAspectRatio="xMinYMin meet">
    <g>
        <rect height="19.9316" opacity="0" width="20.2832" x="0" y="0"/>

        <path class="fill primary" d="M9.96094 19.9219C15.4102 19.9219 19.9219 15.4004 19.9219 9.96094C19.9219 4.51172 15.4004 0 9.95117 0C4.51172 0 0 4.51172 0 9.96094C0 15.4004 4.52148 19.9219 9.96094 19.9219ZM9.96094 18.2617C5.35156 18.2617 1.66992 14.5703 1.66992 9.96094C1.66992 5.35156 5.3418 1.66016 9.95117 1.66016C14.5605 1.66016 18.2617 5.35156 18.2617 9.96094C18.2617 14.5703 14.5703 18.2617 9.96094 18.2617Z"/>

        <path class="fill primary" d="M5.87891 14.3066L14.0234 14.3066C15 14.3066 15.4883 13.8086 15.4883 12.8516L15.4883 7.10938C15.4883 6.14258 15 5.66406 14.0234 5.66406L5.87891 5.66406C4.91211 5.66406 4.41406 6.14258 4.41406 7.10938L4.41406 12.8516C4.41406 13.8184 4.91211 14.3066 5.87891 14.3066ZM5.91797 13.418C5.52734 13.418 5.30273 13.1836 5.30273 12.8027L5.30273 12.373L6.61133 11.2695C6.81641 11.0938 7.04102 10.9961 7.25586 10.9961C7.48047 10.9961 7.71484 11.0938 7.92969 11.2793L8.82812 12.0898L11.0742 10.0977C11.2988 9.90234 11.5527 9.79492 11.8262 9.79492C12.0801 9.79492 12.3535 9.90234 12.5684 10.1074L14.5996 11.9531L14.5996 12.8027C14.5996 13.1836 14.375 13.418 13.9844 13.418ZM7.93945 10.0977C7.29492 10.0977 6.76758 9.58008 6.76758 8.93555C6.76758 8.31055 7.29492 7.7832 7.93945 7.7832C8.56445 7.7832 9.08203 8.31055 9.08203 8.93555C9.08203 9.58008 8.56445 10.0977 7.93945 10.0977Z"/>
    </g>
</svg>
