<?xml version="1.0" encoding="UTF-8"?>

<!DOCTYPE svg>

<svg version="1.1" xmlns="http://www.w3.org/2000/svg" viewBox="0 0 36.359 28.5867" preserveAspectRatio="xMinYMin meet">
    <g>
        <rect height="28.5867" opacity="0" width="36.359" x="0" y="0"/>

        <path class="fill secondary" d="M27.6768 5.70761L27.6768 6.37325L25.5317 6.37325L25.5317 5.77011C25.5317 3.44393 24.3031 2.17713 21.9307 2.17713L5.74608 2.17713C3.3496 2.17713 2.14686 3.44393 2.14686 5.77011L2.14686 15.6324C2.14686 17.9586 3.3496 19.2236 5.74608 19.2236L7.27831 19.2236C7.90819 19.2236 8.18378 19.4746 8.18378 20.1371L8.18378 23.758L12.2512 19.8391C12.6499 19.4286 12.9495 19.2768 13.4251 19.2363C13.4454 20.0476 13.5879 20.7621 13.8474 21.3735L9.48514 25.215C8.73963 25.8666 8.28241 26.1726 7.65741 26.1726C6.77363 26.1726 6.25605 25.5609 6.25605 24.5752L6.25605 21.3705L5.62031 21.3705C2.10351 21.3705 0 19.2736 0 15.6949L0 5.70761C0 2.1289 2.06132 0.0240237 5.68359 0.0240237L21.9932 0.0240237C25.6074 0.0240237 27.6768 2.13691 27.6768 5.70761Z"/>

        <path class="fill primary" d="M20.3347 13.9607L29.1416 13.9607C29.648 13.9607 30.033 13.5617 30.033 13.0756C30.033 12.5576 29.6498 12.1754 29.1416 12.1754L20.3347 12.1754C19.8123 12.1754 19.4451 12.5611 19.4451 13.0756C19.4451 13.5635 19.8158 13.9607 20.3347 13.9607ZM20.3347 18.4726L26.7592 18.4726C27.2523 18.4726 27.647 18.0949 27.647 17.5857C27.647 17.0891 27.2541 16.6873 26.7592 16.6873L20.3347 16.6873C19.8123 16.6873 19.4451 17.0908 19.4451 17.5857C19.4451 18.0949 19.8158 18.4726 20.3347 18.4726ZM18.6625 24.0976L23.1297 24.0976L27.2568 27.6371C27.9707 28.2508 28.4726 28.5867 29.0605 28.5867C29.9248 28.5867 30.4459 27.9644 30.4459 27.015L30.4459 24.0976L30.8175 24.0976C34.166 24.0976 35.9976 22.2525 35.9976 18.9572L35.9976 11.585C35.9976 8.25098 34.1396 6.37325 30.749 6.37325L18.6625 6.37325C15.2719 6.37325 13.4156 8.25098 13.4156 11.585L13.4156 18.9732C13.4156 22.2605 15.2719 24.0976 18.6625 24.0976ZM18.8291 21.993C16.5793 21.993 15.5476 20.9018 15.5476 18.7266L15.5476 11.7586C15.5476 9.59139 16.5793 8.47616 18.8291 8.47616L30.5842 8.47616C32.834 8.47616 33.8639 9.59139 33.8639 11.7586L33.8639 18.7186C33.8639 20.8857 32.826 21.993 30.5842 21.993L29.4545 21.993C28.9137 21.993 28.5021 22.3191 28.5021 22.9809L28.5021 26.2115L24.4808 22.5812C24.0305 22.1664 23.6082 21.993 23.0744 21.993Z"/>
    </g>
</svg>
