<?xml version="1.0" encoding="UTF-8"?>

<!DOCTYPE svg>

<svg version="1.1" xmlns="http://www.w3.org/2000/svg" viewBox="0 0 16.5173 16.1756" preserveAspectRatio="xMinYMin meet">
    <g>
        <rect height="16.1756" opacity="0" width="16.5173" x="0" y="0"/>

        <path class="fill primary" d="M0.419314 15.7538C0.990603 16.3153 1.97205 16.3007 2.50427 15.7685L8.08045 10.1923L13.6469 15.7636C14.1986 16.3153 15.1605 16.3153 15.7269 15.7489C16.2933 15.1776 16.2982 14.2255 15.7465 13.6688L10.1801 8.09267L15.7465 2.52626C16.2982 1.97451 16.2982 1.01747 15.7269 0.451068C15.1556-0.120221 14.1986-0.125104 13.6469 0.431537L8.08045 5.99794L2.50427 0.426654C1.97205-0.105573 0.98572-0.129987 0.419314 0.446185C-0.14221 1.01747-0.127561 1.98915 0.404665 2.52138L5.98084 8.09267L0.404665 13.6786C-0.127561 14.206-0.147093 15.1874 0.419314 15.7538Z"/>
    </g>
</svg>
