<?xml version="1.0" encoding="UTF-8"?>

<!DOCTYPE svg>

<svg version="1.1" xmlns="http://www.w3.org/2000/svg" viewBox="0 0 23.3887 17.9785" preserveAspectRatio="xMinYMin meet">
    <g>
        <rect height="17.9785" opacity="0" width="23.3887" x="0" y="0"/>

        <path class="fill secondary" d="M3.06641 17.9785L19.9609 17.9785C22.0117 17.9785 23.0273 16.9727 23.0273 14.9609L23.0273 3.02734C23.0273 1.01562 22.0117 0 19.9609 0L3.06641 0C1.02539 0 0 1.01562 0 3.02734L0 14.9609C0 16.9727 1.02539 17.9785 3.06641 17.9785ZM3.08594 16.4062C2.10938 16.4062 1.57227 15.8887 1.57227 14.873L1.57227 3.11523C1.57227 2.09961 2.10938 1.57227 3.08594 1.57227L19.9414 1.57227C20.9082 1.57227 21.4551 2.09961 21.4551 3.11523L21.4551 14.873C21.4551 15.8887 20.9082 16.4062 19.9414 16.4062Z"/>

        <path class="fill primary" d="M3.75977 15.0781L10.6738 15.0781C11.2891 15.0781 11.5332 14.8242 11.5332 14.1992L11.5332 3.78906C11.5332 3.16406 11.2891 2.91016 10.6738 2.91016L3.75977 2.91016C3.1543 2.91016 2.91016 3.16406 2.91016 3.78906L2.91016 14.1992C2.91016 14.8242 3.1543 15.0781 3.75977 15.0781ZM19.7266 8.98438C19.7363 8.63281 19.4238 8.33008 19.082 8.33008L16.3477 8.33008L14.9023 8.37891L15.7129 7.60742L16.7676 6.57227C16.8945 6.45508 16.9629 6.2793 16.9629 6.11328C16.9629 5.76172 16.709 5.50781 16.377 5.50781C16.1816 5.50781 16.0352 5.58594 15.9082 5.73242L13.3203 8.50586C13.1543 8.68164 13.0957 8.81836 13.0957 8.98438C13.0957 9.16016 13.1445 9.28711 13.3203 9.46289L15.9082 12.2363C16.0352 12.3926 16.1816 12.4707 16.377 12.4707C16.709 12.4707 16.9629 12.2168 16.9629 11.8652C16.9629 11.6992 16.8945 11.5234 16.7676 11.4062L15.7129 10.3613L14.9023 9.58984L16.3477 9.64844L19.082 9.64844C19.4238 9.64844 19.7168 9.33594 19.7266 8.98438Z"/>
    </g>
</svg>
