<?xml version="1.0" encoding="UTF-8"?>

<!DOCTYPE svg>

<svg version="1.1" xmlns="http://www.w3.org/2000/svg" viewBox="0 0 20.332 24.5996" preserveAspectRatio="xMinYMin meet">
    <g>
        <rect height="24.5996" opacity="0" width="20.332" x="0" y="0"/>

        <path class="fill secondary" d="M19.9707 3.06641L19.9707 16.6309C19.9707 18.6621 18.9551 19.6973 16.9434 19.6973L15.2344 19.6973L15.2344 13.877C15.2344 12.627 15.0879 12.0801 14.3066 11.2793L8.92578 5.80078C8.18359 5.03906 7.56836 4.87305 6.47461 4.87305L4.73633 4.87305L4.73633 3.06641C4.73633 1.02539 5.74219 0 7.76367 0L16.9434 0C18.9551 0 19.9707 1.02539 19.9707 3.06641ZM9.9707 1.99219C9.54102 1.99219 9.3457 2.26562 9.3457 2.56836L9.3457 2.77344C9.3457 3.06641 9.54102 3.34961 9.9707 3.34961L14.7363 3.34961C15.1562 3.34961 15.3613 3.06641 15.3613 2.77344L15.3613 2.56836C15.3613 2.26562 15.1562 1.99219 14.7363 1.99219Z"/>

        <path class="fill primary" d="M0 21.5039C0 23.5449 1.00586 24.5703 3.02734 24.5703L12.207 24.5703C14.2285 24.5703 15.2344 23.5352 15.2344 21.5039L15.2344 13.877C15.2344 12.627 15.0879 12.0801 14.3066 11.2793L8.92578 5.80078C8.18359 5.03906 7.56836 4.87305 6.47461 4.87305L3.02734 4.87305C1.01562 4.87305 0 5.89844 0 7.93945ZM1.57227 21.4746L1.57227 7.95898C1.57227 7.00195 2.08984 6.44531 3.10547 6.44531L6.30859 6.44531L6.30859 12.1094C6.30859 13.3398 6.93359 13.9551 8.14453 13.9551L13.6621 13.9551L13.6621 21.4746C13.6621 22.4512 13.1348 22.998 12.1289 22.998L3.0957 22.998C2.08984 22.998 1.57227 22.4512 1.57227 21.4746ZM8.33008 12.4805C7.93945 12.4805 7.7832 12.3242 7.7832 11.9336L7.7832 6.80664L13.3594 12.4805Z"/>
    </g>
</svg>
