<?xml version="1.0" encoding="UTF-8"?>

<!DOCTYPE svg>

<svg version="1.1" xmlns="http://www.w3.org/2000/svg" viewBox="0 0 179.669 225.084" preserveAspectRatio="xMinYMin meet">
    <g>
        <rect height="225.084" opacity="0" width="179.669" x="0" y="0"/>

        <path class="fill primary" d="M61.7663 195.982L117.895 195.982L117.895 125.46C117.895 120.928 114.918 117.95 110.385 117.95L69.2966 117.95C64.7644 117.95 61.7663 120.928 61.7663 125.46L61.7663 195.982ZM23.5603 208.661L155.649 208.661C170.441 208.661 179.119 200.122 179.119 185.765L179.119 68.7326L160.015 52.6811L160.015 179.926C160.015 186.148 156.623 189.54 150.575 189.54L28.5474 189.54C22.5166 189.54 19.2114 186.148 19.2114 179.926L19.2114 53.1933L0.00312701 69.3178L0.00312701 185.765C0.00312701 200.139 8.68156 208.661 23.5603 208.661ZM0.00272432 94.8288L85.7516 22.8302C88.4458 20.5714 91.4624 20.5895 94.1067 22.8302L179.116 94.2872L179.126 68.7409L103.654 5.29443C95.2451-1.75621 84.7173-1.77341 76.2907 5.29443L-7.10543e-15 69.3193L0.00272432 94.8288Z"/>
    </g>
</svg>
