<?xml version="1.0" encoding="UTF-8"?>

<!DOCTYPE svg>

<svg version="1.1" xmlns="http://www.w3.org/2000/svg" viewBox="0 0 218.75 217.609" preserveAspectRatio="xMinYMin meet">
    <g>
        <rect height="217.609" opacity="0" width="218.75" x="0" y="0"/>

        <path class="fill primary" d="M62.871 217.609C68.3065 217.609 72.3475 214.947 79.1131 209.006L112.541 179.412L172.898 179.412C202.281 179.412 218.75 162.525 218.75 133.543L218.75 57.8066C218.75 28.8242 202.281 11.9375 172.898 11.9375L45.8515 11.9375C16.4687 11.9375 0 28.7441 0 57.8066L0 133.543C0 162.605 16.873 179.412 45.2363 179.412L50.4863 179.412L50.4863 203.484C50.4863 212.111 55.0156 217.609 62.871 217.609ZM67.6131 196.1L67.6131 168.219C67.6131 162.488 65.1581 160.279 59.6737 160.279L46.3964 160.279C27.9354 160.279 19.1327 150.889 19.1327 132.936L19.1327 58.3339C19.1327 40.3808 27.9354 31.0702 46.3964 31.0702L172.353 31.0702C190.734 31.0702 199.617 40.3808 199.617 58.3339L199.617 132.936C199.617 150.889 190.734 160.279 172.353 160.279L111.515 160.279C105.572 160.279 102.75 161.236 98.6171 165.414Z"/>

        <path class="fill primary" d="M61.873 85.4628C61.873 96.8242 68.9824 105.435 79.9824 105.435C84.3827 105.435 88.537 104.559 91.1288 101.318L92.2089 101.318C88.9647 109.09 81.5858 114.477 74.4296 116.242C71.0273 117.148 69.8476 118.746 69.8476 121.107C69.8476 123.689 72.0038 125.67 74.8261 125.67C85.2167 125.67 104.584 113.318 104.584 89.4452C104.584 75.7773 95.9023 65.2617 82.7148 65.2617C70.7675 65.2617 61.873 73.5957 61.873 85.4628ZM114.836 85.4628C114.836 96.8242 121.928 105.435 132.945 105.435C137.328 105.435 141.5 104.559 144.092 101.318L145.172 101.318C141.928 109.09 134.549 114.477 127.392 116.242C124.053 117.148 122.793 118.746 122.793 121.107C122.793 123.689 124.967 125.67 127.789 125.67C138.162 125.67 157.529 113.318 157.529 89.4452C157.529 75.7773 148.865 65.2617 135.66 65.2617C123.713 65.2617 114.836 73.5957 114.836 85.4628Z"/>
    </g>
</svg>
