<?xml version="1.0" encoding="UTF-8"?>

<!DOCTYPE svg>

<svg version="1.1" xmlns="http://www.w3.org/2000/svg" viewBox="0 0 27.0508 20.5566" preserveAspectRatio="xMinYMin meet">
    <g>
        <rect height="20.5566" opacity="0" width="27.0508" x="0" y="0"/>

        <path class="fill secondary" d="M6.14044 5.73705C3.43781 7.44842 1.70898 9.61346 1.70898 10.2832C1.70898 11.6602 6.91406 17.1094 13.3496 17.1094C14.6102 17.1094 15.825 16.8984 16.9602 16.5439L18.2254 17.8076C16.75 18.3347 15.1106 18.6523 13.3496 18.6523C5.55664 18.6523 0 12.2754 0 10.2832C0 9.12793 1.85367 6.51899 4.92486 4.52292ZM26.6895 10.2832C26.6895 11.4332 24.8738 14.0441 21.8131 16.0421L20.62 14.8497C23.2775 13.1828 24.9805 11.0693 24.9805 10.2832C24.9805 9.12109 19.7559 3.45703 13.3496 3.45703C12.1055 3.45703 10.9073 3.66872 9.78592 4.02213L8.51937 2.75634C9.98881 2.23064 11.6141 1.91406 13.3496 1.91406C21.2305 1.91406 26.6895 8.28125 26.6895 10.2832ZM15.6512 15.2365C14.9545 15.5685 14.174 15.752 13.3496 15.752C10.293 15.752 7.85156 13.2617 7.85156 10.2832C7.85156 9.4478 8.03393 8.66054 8.36668 7.96063ZM18.8281 10.2832C18.8281 11.09 18.649 11.8609 18.3224 12.5535L11.0671 5.30258C11.7589 4.98692 12.5323 4.81445 13.3496 4.81445C16.3867 4.81445 18.8281 7.22656 18.8281 10.2832Z"/>

        <path class="fill primary" d="M20.7812 18.7402C21.0742 19.043 21.5332 19.0625 21.8457 18.7402C22.1582 18.418 22.1387 17.9785 21.8457 17.6758L5.50781 1.35742C5.22461 1.06445 4.73633 1.06445 4.43359 1.35742C4.15039 1.64062 4.15039 2.13867 4.43359 2.42188Z"/>
    </g>
</svg>
