<?xml version="1.0" encoding="UTF-8"?>

<!DOCTYPE svg>

<svg version="1.1" xmlns="http://www.w3.org/2000/svg" viewBox="0 0 20.5381 20.1918" preserveAspectRatio="xMinYMin meet">
    <g>
        <rect height="20.1918" opacity="0" width="20.5381" x="0" y="0"/>

        <path class="fill secondary" d="M20.1767 10.1025C20.1767 15.6291 15.6141 20.1918 10.0875 20.1918C4.5707 20.1918 0 15.6291 0 10.1025C0 4.58574 4.56269 0.0150388 10.0795 0.0150388C15.606 0.0150388 20.1767 4.58574 20.1767 10.1025ZM9.04355 4.97988C8.53828 4.97988 8.27285 5.1123 8.01191 5.39199L7.60253 5.82285C7.36914 6.06074 7.24667 6.14433 6.86308 6.14433L5.67265 6.14433C4.59238 6.14433 4.0289 6.69179 4.0289 7.77382L4.0289 13.0346C4.0289 14.0988 4.59238 14.6543 5.67265 14.6543L14.5059 14.6543C15.5799 14.6543 16.1496 14.0988 16.1496 13.0346L16.1496 7.77382C16.1496 6.69179 15.5799 6.14433 14.5059 6.14433L13.2932 6.14433C12.9078 6.14433 12.7693 6.07675 12.5342 5.82285L12.1346 5.39199C11.8816 5.11406 11.6162 4.97988 11.1029 4.97988ZM13.0418 10.3531C13.0418 12.0314 11.7338 13.3092 10.0955 13.3092C8.46074 13.3092 7.14296 12.0074 7.14296 10.3531C7.14296 8.72011 8.46074 7.40234 10.0955 7.40234C11.7338 7.40234 13.0418 8.72011 13.0418 10.3531ZM8.12714 10.3531C8.12714 11.4443 9.00956 12.3188 10.0875 12.3188C11.1689 12.3188 12.0514 11.4443 12.0514 10.3531C12.0514 9.27343 11.1689 8.391 10.0875 8.391C9.00956 8.391 8.12714 9.26542 8.12714 10.3531ZM14.7769 8.31737C14.785 8.70702 14.4707 9.01327 14.0891 9.01327C13.6994 9.01327 13.3852 8.70702 13.3852 8.31737C13.3852 7.92948 13.6994 7.62148 14.0891 7.62148C14.4707 7.62148 14.7769 7.92948 14.7769 8.31737Z"/>
    </g>
</svg>
