<?xml version="1.0" encoding="UTF-8"?>

<!DOCTYPE svg>

<svg version="1.1" xmlns="http://www.w3.org/2000/svg" viewBox="0 0 30.6714 23.2251" preserveAspectRatio="xMinYMin meet">
    <g>
        <rect height="23.2251" opacity="0" width="30.6714" x="0" y="0"/>

        <path class="fill secondary" d="M25.346 11.6108C25.346 17.19 20.7442 21.7953 15.1584 21.7953C13.8069 21.7953 12.5122 21.5247 11.3285 21.0306C12.3669 19.8812 13.0014 18.365 13.0014 16.7213C13.0014 16.2227 12.9439 15.7364 12.8298 15.271C13.5368 15.1057 14.3177 15.0118 15.1584 15.0118C17.8208 15.0118 19.879 15.9483 20.9377 17.0702C22.287 15.6539 23.1082 13.733 23.1082 11.6108C23.1082 7.20323 19.5592 3.66399 15.1517 3.66399C11.1974 3.66399 7.95273 6.51278 7.33601 10.2846C7.06359 10.2423 6.78411 10.2237 6.50068 10.2237C6.00397 10.2237 5.51929 10.2808 5.05497 10.3942C5.6582 5.37135 9.98703 1.42623 15.1517 1.42623C20.7376 1.42623 25.346 6.0249 25.346 11.6108ZM18.5328 9.74454C18.5328 11.8348 17.0618 13.455 15.1584 13.4417C13.2647 13.4284 11.7937 11.8348 11.787 9.74454C11.7773 7.77499 13.271 6.12239 15.1584 6.12239C17.0489 6.12239 18.5328 7.77499 18.5328 9.74454Z"/>

        <path class="fill primary" d="M11.5765 16.7213C11.5765 19.4951 9.25765 21.8002 6.50068 21.8002C3.72062 21.8002 1.42484 19.5085 1.42484 16.7213C1.42484 13.9443 3.72062 11.6486 6.50068 11.6486C9.28429 11.6486 11.5765 13.9377 11.5765 16.7213ZM5.78697 14.2022L5.78697 16.0107L3.97539 16.0107C3.54619 16.0107 3.26168 16.2916 3.26168 16.7244C3.26168 17.154 3.5524 17.4381 3.97539 17.4381L5.78697 17.4381L5.78697 19.2559C5.78697 19.6855 6.06793 19.9665 6.50068 19.9665C6.93033 19.9665 7.21439 19.6855 7.21439 19.2559L7.21439 17.4381L9.02908 17.4381C9.44896 17.4381 9.73968 17.154 9.73968 16.7244C9.73968 16.2916 9.44896 16.0107 9.02908 16.0107L7.21439 16.0107L7.21439 14.2022C7.21439 13.773 6.93033 13.4885 6.50068 13.4885C6.06793 13.4885 5.78697 13.7792 5.78697 14.2022Z"/>
    </g>
</svg>
