<?xml version="1.0" encoding="UTF-8" standalone="no"?>

<!DOCTYPE svg>

<svg id="svg1" xmlns="http://www.w3.org/2000/svg" height="80pt" width="80pt" viewBox="0 0 106.666 106.666" xmlns:xlink="http://www.w3.org/1999/xlink">
    <defs id="defs3">
        <linearGradient id="linearGradient9171">
            <stop id="stop9172" stop-color="#fded00" offset="0"/>
            <stop id="stop9173" stop-color="#eaa600" offset="1"/>
        </linearGradient>

        <linearGradient id="linearGradient7925">
            <stop id="stop7926" stop-color="#d0d0d0" offset="0"/>
            <stop id="stop7927" stop-color="#a6a3a3" offset="1"/>
        </linearGradient>

        <linearGradient id="linearGradient6053">
            <stop id="stop6054" stop-color="#eeeeef" offset="0"/>
            <stop id="stop6055" stop-color="#eeeeef" stop-opacity="0" offset="1"/>
        </linearGradient>

        <linearGradient id="linearGradient10435" y2="24.944" xlink:href="#linearGradient7925" gradientUnits="userSpaceOnUse" y1="51.917" gradientTransform="scale(.89256 1.1204)" x2="25.701" x1="68.289"/>

        <linearGradient id="linearGradient10439" y2="37.499" xlink:href="#linearGradient6053" gradientUnits="userSpaceOnUse" y1="22.576" gradientTransform="scale(1.0181 .98223)" x2="63.214" x1="67.512"/>

        <linearGradient id="linearGradient10443" y2="60.886" xlink:href="#linearGradient6053" gradientUnits="userSpaceOnUse" y1="89.566" gradientTransform="scale(1.0181 .98223)" x2="46.099" x1="31.621"/>

        <linearGradient id="linearGradient2368" y2="-16.187" xlink:href="#linearGradient7925" gradientUnits="userSpaceOnUse" y1="-29.097" gradientTransform="scale(1.0029 .99712)" x2="60.567" x1="71.452"/>

        <linearGradient id="linearGradient2369" y2="-57.829" xlink:href="#linearGradient9171" gradientUnits="userSpaceOnUse" y1="-77.68" gradientTransform="scale(1.0122 .98792)" x2="22.69" x1="39.07"/>

        <linearGradient id="linearGradient2370" y2="-17.167" xlink:href="#linearGradient6053" gradientUnits="userSpaceOnUse" y1="-4.4481" gradientTransform="scale(.98568 1.0145)" x2="75.682" x1="88.667"/>

        <linearGradient id="linearGradient2371" y2="-6.8783" gradientUnits="userSpaceOnUse" y1="-6.3585" gradientTransform="scale(.95421 1.048)" x2="88.669" x1="89.202">
            <stop id="stop7301" stop-color="#fff" offset="0"/>
            <stop id="stop7302" stop-color="#fff" stop-opacity="0" offset="1"/>
        </linearGradient>

        <linearGradient id="linearGradient2372" y2="-65.391" xlink:href="#linearGradient9171" gradientUnits="userSpaceOnUse" y1="-76.386" gradientTransform="scale(1.1521 .86795)" x2="14.759" x1="24.321"/>

        <linearGradient id="linearGradient2373" y2="-60.323" xlink:href="#linearGradient9171" gradientUnits="userSpaceOnUse" y1="-68.063" gradientTransform="scale(.91051 1.0983)" x2="28.947" x1="38.696"/>

        <linearGradient id="linearGradient2374" y2="-74.328" xlink:href="#linearGradient9171" gradientUnits="userSpaceOnUse" y1="-64.578" gradientTransform="scale(1.0189 .98140)" x2="29.839" x1="22.235"/>
    </defs>

    <g id="layer1">
        <g id="g10453" transform="matrix(.98730 .15886 -.15886 .98730 8.6693 -7.5326)">
            <path id="path1683" stroke-linejoin="round" d="m64.661 6.0611c-4.831 1.9764-8.619 6.2529-9.679 11.757-0.673 3.493-0.092 6.917 1.339 9.901-3.895 8.12-19.113 29.069-26.331 36.587-6.581 0.93-12.171 5.856-13.497 12.74-1.006 5.227 0.712 10.321 4.096 13.932l2.098-10.894c0.523-2.72 3.135-4.488 5.855-3.964l7.917 1.525c2.72 0.523 4.488 3.135 3.964 5.855l-2.186 11.354c4.83-1.977 8.619-6.253 9.679-11.757 0.842-4.372-0.202-8.667-2.544-12.074 5.389-9.026 18.947-28.336 26.036-34.225 7.218-0.328 13.571-5.527 14.996-12.929 1.007-5.228-0.711-10.321-4.095-13.932l-2.098 10.894c-0.524 2.72-3.135 4.488-5.855 3.964l-7.917-1.525c-2.721-0.524-4.489-3.135-3.965-5.855l2.187-11.354z" stroke="#606060" stroke-linecap="round" stroke-width="1.25" fill="url(#linearGradient10435)"/>

            <path id="path2940" d="m63.934 7.289c-4.83 1.9765-7.335 5.45-8.395 10.954-0.672 3.493-0.092 6.757 1.34 9.74 2.685 3.948 7.516 6.622 13.802 8.277 7.219-0.328 13.571-4.403 14.997-11.805 1.007-5.228 0.412-10.321-2.972-13.932l-2.098 10.894c-0.524 2.72-3.135 4.488-5.855 3.964l-8.88-1.685c-2.72-0.524-4.489-3.136-3.965-5.856l2.026-10.551z" fill="url(#linearGradient10439)"/>

            <path id="path4183" d="m39.019 94.502c4.831-1.977 7.496-6.253 8.556-11.757 0.673-3.493 0.092-6.757-1.339-9.74-2.686-3.948-7.517-6.622-13.803-8.277-7.218 0.328-13.571 4.403-14.996 11.805-1.007 5.228-0.413 10.321 2.971 13.932l2.098-10.894c0.524-2.72 3.136-4.488 5.856-3.964l8.88 1.685c2.72 0.524 4.488 3.136 3.964 5.856l-2.187 11.354z" fill="url(#linearGradient10443)"/>
        </g>

        <g id="g10444" fill-rule="evenodd" transform="translate(1.25 92.5)">
            <path id="path4806" d="m42.78-42.401l5.221-6.045 28.714 29.401c2.519 1.375 4.236-0.139 6.594 1.717 2.451 2.083 4.099 5.61 6.711 8.9764l-5.863 6.0696c-3.764-2.6262-8.972-4.6104-10.167-7.2367-1.376-1.7023 1.101-3.7253-0.435-5.2673l-30.775-27.615z" stroke="#606060" stroke-width=".85592pt" fill="url(#linearGradient2368)"/>

            <path id="path4807" d="m49.787-50.094c0.515-1.916-4.266-2.227-7.121-5.267-6.8-6.131-18.415-27.511-22.967-29.63-10.747-5.418-21.334 3.289-15.387 14.563 2.988 5.081 23.633 14.334 31.758 21.982 2.306 2.29 3.81 8.431 5.474 7.832 3.71-2.037 7.261-5.678 8.243-9.48z" stroke="#aa4200" stroke-width=".85592pt" fill="url(#linearGradient2369)"/>

            <path id="path4810" d="m75.243-19.042c2.519 1.375 5.038 0.021 7.397 1.877 2.451 2.083 4.259 5.289 6.871 8.6556l-5.703 5.588c-3.763-2.6263-7.848-4.2894-9.043-6.9157-1.375-1.7019-0.183-5.1699-1.719-6.7119l2.197-2.493z" fill="url(#linearGradient2370)"/>

            <path id="path4808" d="m81.688-18.594c-2.224 0.097-4.26 1.028-5.844 2.818-1.585 1.79-2.688 4.526-2.688 4.526l0.742 0.977s0.415-3.439 1.92-5.14c1.506-1.701 5.235-2.348 6.703-2.412l-0.833-0.769z"/>

            <path id="path6057" d="m83.788-2.4077l5.939-6.0995s-1.766-1.1236-1.766-1.9258c0-0.803-6.099 5.9386-6.099 5.9386 0.321 1.1236 1.605 1.1236 1.926 2.0867z" fill="url(#linearGradient2371)"/>

            <path id="path9175" d="m7.3836-68.379s-2.0866-1.284-0.1605-3.531c1.9262-2.247 32.103 20.385 26.645 21.027-9.63-6.902-24.237-15.891-26.484-17.496z" fill="url(#linearGradient2372)"/>

            <path id="path9176" d="m18.377-79.777c-1.765-3.21 0.803-3.852 3.211-2.729 3.049 2.729 16.051 22.633 17.817 24.238 0.16 3.692-19.102-17.657-21.028-21.509z" fill="url(#linearGradient2373)"/>

            <path id="path9177" d="m13.064-74.22c-2.132-2.979-0.109-4.998 2.414-4.166 3.153 2.05 23.096 23.318 21.967 24.167-0.528 0.918-22.014-16.403-24.381-20.001z" fill="url(#linearGradient2374)"/>
        </g>
    </g>
</svg>
