<?xml version="1.0" encoding="UTF-8"?>

<!DOCTYPE svg>

<svg version="1.1" xmlns="http://www.w3.org/2000/svg" viewBox="0 0 20.2832 20.4395" preserveAspectRatio="xMinYMin meet">
    <g>
        <rect height="20.4395" opacity="0" width="20.2832" x="0" y="0"/>

        <path class="fill primary" d="M19.9219 10.4785C19.9219 15.918 15.4102 20.4395 9.96094 20.4395C4.52148 20.4395 0 15.918 0 10.4785C0 5.0293 4.51172 0.517578 9.95117 0.517578C15.4004 0.517578 19.9219 5.0293 19.9219 10.4785ZM13.6719 5.21484L3.99414 8.92578C3.52539 9.0918 3.16406 9.38477 3.16406 9.79492C3.16406 10.3027 3.54492 10.4785 4.0918 10.6445L7.13867 11.5625C7.5 11.6699 7.69531 11.6699 7.93945 11.4551L14.0918 5.68359C14.1699 5.61523 14.248 5.63477 14.3066 5.67383C14.375 5.73242 14.375 5.82031 14.3066 5.89844L8.57422 12.0801C8.34961 12.3047 8.33008 12.4902 8.42773 12.8809L9.33594 15.8398C9.51172 16.4062 9.66797 16.8164 10.1855 16.8164C10.5957 16.8164 10.8887 16.4844 11.0938 15.9473L14.7754 6.31836C14.873 6.05469 14.9219 5.83984 14.9219 5.64453C14.9219 5.2832 14.707 5.05859 14.3457 5.05859C14.1504 5.05859 13.9355 5.11719 13.6719 5.21484Z"/>
    </g>
</svg>
