<?xml version="1.0" encoding="UTF-8"?>

<!DOCTYPE svg>

<svg version="1.1" xmlns="http://www.w3.org/2000/svg" viewBox="0 0 23.0185 17.9906" preserveAspectRatio="xMinYMin meet">
    <g>
        <rect height="17.9906" opacity="0" width="23.0185" x="0" y="0"/>

        <path class="fill secondary" d="M3.0636 17.9906L19.9544 17.9906C22.0008 17.9906 23.018 16.9692 23.018 14.958L23.018 3.04077C23.018 1.02964 22.0008 0.00823456 19.9544 0.00823456L3.0636 0.00823456C1.02753 0.00823456 0 1.02542 0 3.04077L0 14.958C0 16.9734 1.02753 17.9906 3.0636 17.9906ZM3.08852 16.4095C2.11324 16.4095 1.5707 15.8877 1.5707 14.8814L1.5707 3.11745C1.5707 2.10079 2.11324 1.58929 3.08852 1.58929L19.9295 1.58929C20.8963 1.58929 21.4473 2.10079 21.4473 3.11745L21.4473 14.8814C21.4473 15.8877 20.8963 16.4095 19.9295 16.4095L3.08852 16.4095Z"/>

        <path class="fill primary" d="M3.7571 15.0865L10.6726 15.0865C11.2922 15.0865 11.5338 14.8221 11.5338 14.2025L11.5338 3.79639C11.5338 3.16639 11.2922 2.91237 10.6726 2.91237L3.7571 2.91237C3.14781 2.91237 2.90413 3.16639 2.90413 3.79639L2.90413 14.2025C2.90413 14.8221 3.14781 15.0865 3.7571 15.0865ZM13.0919 8.99519C13.0815 8.64075 13.3904 8.33405 13.7323 8.33405L16.4704 8.33405L17.9141 8.39003L17.0997 7.62129L16.0517 6.57537C15.919 6.45518 15.8548 6.28937 15.8548 6.12144C15.8548 5.7628 16.1076 5.50995 16.4435 5.50995C16.6323 5.50995 16.7795 5.58895 16.9082 5.74037L19.4999 8.51022C19.6615 8.69252 19.7196 8.81693 19.7196 8.99519C19.7196 9.16311 19.6657 9.29577 19.4999 9.46981L16.9082 12.25C16.7795 12.3911 16.6323 12.4701 16.4435 12.4701C16.1076 12.4701 15.8548 12.2173 15.8548 11.8689C15.8548 11.7114 15.919 11.5249 16.0517 11.4129L17.0997 10.3691L17.9141 9.60037L16.4704 9.65633L13.7323 9.65633C13.3904 9.65633 13.1023 9.34752 13.0919 8.99519Z"/>
    </g>
</svg>
