<?xml version="1.0" encoding="UTF-8"?>

<!DOCTYPE svg>

<svg version="1.1" xmlns="http://www.w3.org/2000/svg" viewBox="0 0 23.9258 16.8457" preserveAspectRatio="xMinYMin meet">
    <g>
        <rect height="16.8457" opacity="0" width="23.9258" x="0" y="0"/>

        <path class="fill primary" d="M3.06641 16.8457L20.791 16.8457C22.5391 16.8457 23.5645 15.8301 23.5645 13.8184L23.5645 3.03711C23.5645 1.02539 22.5293 0.00976562 20.498 0.00976562L2.77344 0.00976562C1.02539 0.00976562 0 1.02539 0 3.03711L0 13.8184C0 15.8301 1.03516 16.8457 3.06641 16.8457ZM3.00781 15.3516C2.04102 15.3516 1.49414 14.8145 1.49414 13.8086L1.49414 3.02734C1.49414 2.03125 2.04102 1.50391 3.00781 1.50391L20.5469 1.50391C21.5137 1.50391 22.0703 2.03125 22.0703 3.03711L22.0703 13.8184C22.0703 14.8145 21.5137 15.3516 20.5469 15.3516ZM11.7773 10.9961C12.4023 10.9961 13.0078 10.7617 13.5645 10.2539L22.7539 1.98242L21.7383 0.957031L12.7148 9.0918C12.4121 9.36523 12.0996 9.49219 11.7773 9.49219C11.4551 9.49219 11.1426 9.36523 10.8398 9.0918L1.81641 0.957031L0.800781 1.98242L9.99023 10.2539C10.5469 10.7617 11.1523 10.9961 11.7773 10.9961ZM1.96289 15.5957L8.89648 8.65234L7.88086 7.63672L0.947266 14.5703ZM21.6113 15.6055L22.627 14.5801L15.6836 7.63672L14.6582 8.65234Z"/>
    </g>
</svg>
