<?xml version="1.0" encoding="UTF-8"?>

<!DOCTYPE svg>

<svg version="1.1" xmlns="http://www.w3.org/2000/svg" viewBox="0 0 20.2832 19.9316" preserveAspectRatio="xMinYMin meet">
    <g>
        <rect height="19.9316" opacity="0" width="20.2832" x="0" y="0"/>

        <path class="fill primary" d="M19.9219 9.9707C19.9219 15.4199 15.4102 19.9316 9.96094 19.9316C4.52148 19.9316 0 15.4199 0 9.9707C0 4.53125 4.51172 0.00976562 9.95117 0.00976562C15.4004 0.00976562 19.9219 4.53125 19.9219 9.9707ZM7.20703 7.66602L7.20703 8.85742C6.62109 8.89648 6.32812 9.23828 6.32812 9.95117L6.32812 13.9648C6.32812 14.7168 6.66016 15.0586 7.35352 15.0586L12.5684 15.0586C13.2617 15.0586 13.5938 14.7168 13.5938 13.9648L13.5938 9.95117C13.5938 9.23828 13.3008 8.89648 12.7148 8.85742L12.7148 7.66602C12.7148 5.81055 11.6016 4.57031 9.96094 4.57031C8.32031 4.57031 7.20703 5.81055 7.20703 7.66602ZM11.6602 7.54883L11.6602 8.84766L8.26172 8.84766L8.26172 7.54883C8.26172 6.37695 8.94531 5.58594 9.96094 5.58594C10.9766 5.58594 11.6602 6.37695 11.6602 7.54883Z"/>
    </g>
</svg>
