<?xml version="1.0" encoding="UTF-8"?>

<!DOCTYPE svg>

<svg version="1.1" xmlns="http://www.w3.org/2000/svg" viewBox="0 0 16.7871 20.9473" preserveAspectRatio="xMinYMin meet">
    <g>
        <rect height="20.9473" opacity="0" width="16.7871" x="0" y="0"/>

        <path class="fill primary" d="M0 17.8809C0 19.9219 1.00586 20.9375 3.02734 20.9375L13.3984 20.9375C15.4199 20.9375 16.4258 19.9219 16.4258 17.8809L16.4258 3.06641C16.4258 1.03516 15.4199 0 13.3984 0L3.02734 0C1.00586 0 0 1.03516 0 3.06641ZM1.57227 17.8516L1.57227 3.0957C1.57227 2.11914 2.08984 1.57227 3.10547 1.57227L13.3203 1.57227C14.3359 1.57227 14.8535 2.11914 14.8535 3.0957L14.8535 17.8516C14.8535 18.8281 14.3359 19.3652 13.3203 19.3652L3.10547 19.3652C2.08984 19.3652 1.57227 18.8281 1.57227 17.8516Z"/>

        <path class="fill primary" d="M3.60352 14.7363C3.20312 14.7363 2.96875 14.9902 2.96875 15.4004L2.96875 17.0312C2.96875 17.4414 3.20312 17.6953 3.60352 17.6953L8.01758 17.6953C8.39844 17.6953 8.64258 17.4414 8.64258 17.0312L8.64258 15.4004C8.64258 14.9902 8.39844 14.7363 8.01758 14.7363Z"/>

        <path class="fill primary" d="M3.60352 10.9082C3.20312 10.9082 2.96875 11.1523 2.96875 11.5527L2.96875 13.2031C2.96875 13.6133 3.20312 13.8574 3.60352 13.8574L11.2305 13.8574C11.6211 13.8574 11.8555 13.6133 11.8555 13.2031L11.8555 11.5527C11.8555 11.1523 11.6211 10.9082 11.2305 10.9082Z"/>

        <path class="fill primary" d="M3.60352 7.07031C3.20312 7.07031 2.96875 7.32422 2.96875 7.72461L2.96875 9.36523C2.96875 9.76562 3.20312 10.0195 3.60352 10.0195L12.8418 10.0195C13.2324 10.0195 13.4668 9.76562 13.4668 9.35547L13.4668 7.72461C13.4668 7.32422 13.2324 7.07031 12.8418 7.07031Z"/>

        <path class="fill primary" d="M3.60352 3.23242C3.20312 3.23242 2.96875 3.48633 2.96875 3.89648L2.96875 5.52734C2.96875 5.9375 3.20312 6.19141 3.60352 6.19141L9.58984 6.19141C9.98047 6.19141 10.2148 5.9375 10.2148 5.52734L10.2148 3.89648C10.2148 3.48633 9.98047 3.23242 9.58984 3.23242Z"/>
    </g>
</svg>
