<?xml version="1.0" encoding="UTF-8"?>

<!DOCTYPE svg>

<svg version="1.1" xmlns="http://www.w3.org/2000/svg" viewBox="0 0 20.0066 14.475" preserveAspectRatio="xMinYMin meet">
    <g>
        <rect height="14.475" opacity="0" width="20.0066" x="0" y="0"/>

        <path class="fill primary" d="M0.872062 14.475L19.1264 14.475C19.6175 14.475 20.0066 14.0732 20.0066 13.5845C20.0066 13.0913 19.6196 12.694 19.1264 12.694L0.872062 12.694C0.389635 12.694 0.000534411 13.0954 0.000534411 13.5845C0.000534411 14.0691 0.391689 14.475 0.872062 14.475ZM0.872062 8.13732L19.1264 8.13732C19.6175 8.13732 20.0066 7.73385 20.0066 7.24683C20.0066 6.75366 19.6196 6.35633 19.1264 6.35633L0.872062 6.35633C0.389635 6.35633 0.000534411 6.75777 0.000534411 7.24683C0.000534411 7.72974 0.391689 8.13732 0.872062 8.13732ZM0.872062 1.79302L19.1264 1.79302C19.6175 1.79302 20.0066 1.38955 20.0066 0.911226C20.0066 0.418039 19.6196 0.0207198 19.1264 0.0207198L0.872062 0.0207198C0.389635 0.0207198 0.000534411 0.422151 0.000534411 0.911226C0.000534411 1.38544 0.391689 1.79302 0.872062 1.79302Z"/>
    </g>
</svg>
