<?xml version="1.0" encoding="UTF-8"?>

<!DOCTYPE svg>

<svg version="1.1" xmlns="http://www.w3.org/2000/svg" viewBox="0 0 21.6744 34.7199" preserveAspectRatio="xMinYMin meet">
    <g>
        <rect height="34.7199" opacity="0" width="21.6744" x="0" y="0"/>

        <path class="fill primary" d="M21.3131 8.70097L21.3131 27.9303C21.3131 30.5439 19.9478 31.9189 17.3687 31.9189L3.94433 31.9189C1.36523 31.9189 0 30.5439 0 27.9303L0 8.70097C0 6.0873 1.36523 4.7043 3.94433 4.7043L4.28374 4.7043C4.26038 4.84474 4.2498 4.99164 4.2498 5.14296L4.2498 6.45683C4.2498 6.57973 4.25672 6.69971 4.27267 6.81522L4.04726 6.81522C2.77108 6.81522 2.10467 7.49764 2.10467 8.73027L2.10467 27.901C2.10467 29.1336 2.77108 29.816 4.04726 29.816L17.2658 29.816C18.542 29.816 19.2084 29.1336 19.2084 27.901L19.2084 8.73027C19.2084 7.49764 18.542 6.81522 17.2658 6.81522L17.0404 6.81522C17.0563 6.69971 17.0633 6.57973 17.0633 6.45683L17.0633 5.14296C17.0633 4.99164 17.0527 4.84474 17.0293 4.7043L17.3687 4.7043C19.9478 4.7043 21.3131 6.0873 21.3131 8.70097Z"/>

        <path class="fill primary" d="M6.79511 7.65116L14.518 7.65116C15.2332 7.65116 15.6707 7.20839 15.6707 6.45683L15.6707 5.14296C15.6707 4.3914 15.2332 3.94863 14.518 3.94863L13.3531 3.94863C13.2742 2.5375 12.0965 1.39258 10.6605 1.39258C9.2166 1.39258 8.03886 2.5375 7.95996 3.94863L6.79511 3.94863C6.07988 3.94863 5.64238 4.3914 5.64238 5.14296L5.64238 6.45683C5.64238 7.20839 6.07988 7.65116 6.79511 7.65116ZM10.6605 5.15761C10.032 5.15761 9.53046 4.63652 9.53046 4.03554C9.53046 3.41054 10.032 2.90898 10.6605 2.90898C11.281 2.90898 11.7826 3.41054 11.7826 4.03554C11.7826 4.63652 11.281 5.15761 10.6605 5.15761Z"/>

        <path class="fill primary" d="M5.4746 24.267C6.05917 24.267 6.53202 23.7941 6.53202 23.2096C6.53202 22.617 6.05917 22.1441 5.4746 22.1441C4.89354 22.1441 4.40917 22.6285 4.40917 23.2096C4.40917 23.7826 4.89354 24.267 5.4746 24.267ZM8.77694 23.9986L16.1201 23.9986C16.5492 23.9986 16.9074 23.6387 16.9074 23.2096C16.9074 22.7725 16.5572 22.424 16.1201 22.424L8.77694 22.424C8.33006 22.424 7.98163 22.7725 7.98163 23.2096C7.98163 23.6387 8.33983 23.9986 8.77694 23.9986Z"/>

        <path class="fill primary" d="M5.4746 19.5144C6.05917 19.5144 6.53202 19.0416 6.53202 18.457C6.53202 17.8742 6.05565 17.4111 5.4746 17.4111C4.88378 17.4111 4.40917 17.8857 4.40917 18.457C4.40917 19.0416 4.88202 19.5144 5.4746 19.5144ZM8.77694 19.2461L16.1201 19.2461C16.5607 19.2461 16.9074 18.8976 16.9074 18.457C16.9074 18.0279 16.5572 17.6795 16.1201 17.6795L8.77694 17.6795C8.33006 17.6795 7.98163 18.0279 7.98163 18.457C7.98163 18.8976 8.32831 19.2461 8.77694 19.2461Z"/>

        <path class="fill primary" d="M5.4746 15.0221C6.05917 15.0221 6.53202 14.5492 6.53202 13.9646C6.53202 13.3721 6.05917 12.9072 5.4746 12.9072C4.89354 12.9072 4.40917 13.3818 4.40917 13.9646C4.40917 14.5377 4.89354 15.0221 5.4746 15.0221ZM8.77694 14.7519L16.1201 14.7519C16.5492 14.7519 16.9074 14.3937 16.9074 13.9646C16.9074 13.5338 16.5492 13.1756 16.1201 13.1756L8.77694 13.1756C8.33983 13.1756 7.98163 13.5338 7.98163 13.9646C7.98163 14.3937 8.33983 14.7519 8.77694 14.7519Z"/>
    </g>
</svg>
