<?xml version="1.0" encoding="UTF-8"?>

<svg width="473px" height="78px" viewBox="0 0 473 78" version="1.1" xmlns="http://www.w3.org/2000/svg">
    <defs>
        <linearGradient x1="58.49572%" y1="58.6833498%" x2="24.5135817%" y2="24.6485169%" id="linearGradient-1">
            <stop stop-color="#D0D0D0" offset="0%"/>
            <stop stop-color="#A6A3A3" offset="100%"/>
        </linearGradient>

        <linearGradient x1="43.6595992%" y1="51.2177481%" x2="29.4805289%" y2="95.8054034%" id="linearGradient-2">
            <stop stop-color="#EEEEEF" offset="0%"/>
            <stop stop-color="#EEEEEF" stop-opacity="0" offset="100%"/>
        </linearGradient>

        <linearGradient x1="49.2527157%" y1="76.1339142%" x2="97.0160655%" y2="-11.9346797%" id="linearGradient-3">
            <stop stop-color="#EEEEEF" offset="0%"/>
            <stop stop-color="#EEEEEF" stop-opacity="0" offset="100%"/>
        </linearGradient>

        <linearGradient x1="61.132961%" y1="42.3562643%" x2="38.0242259%" y2="69.3200949%" id="linearGradient-4">
            <stop stop-color="#D0D0D0" offset="0%"/>
            <stop stop-color="#A6A3A3" offset="100%"/>
        </linearGradient>

        <linearGradient x1="78.2360889%" y1="22.532575%" x2="43.1305552%" y2="63.5466671%" id="linearGradient-5">
            <stop stop-color="#FDED00" offset="0%"/>
            <stop stop-color="#EAA600" offset="100%"/>
        </linearGradient>

        <linearGradient x1="87.1623964%" y1="88.9516656%" x2="9.42747501%" y2="11.2583597%" id="linearGradient-6">
            <stop stop-color="#EEEEEF" offset="0%"/>
            <stop stop-color="#EEEEEF" stop-opacity="0" offset="100%"/>
        </linearGradient>

        <linearGradient x1="41.9681029%" y1="47.4030175%" x2="35.9346987%" y2="40.6708339%" id="linearGradient-7">
            <stop stop-color="#FFFFFF" offset="0%"/>
            <stop stop-color="#FFFFFF" stop-opacity="0" offset="100%"/>
        </linearGradient>

        <linearGradient x1="76.8602855%" y1="36.9136005%" x2="37.6845829%" y2="62.80016%" id="linearGradient-8">
            <stop stop-color="#FDED00" offset="0%"/>
            <stop stop-color="#EAA600" offset="100%"/>
        </linearGradient>

        <linearGradient x1="72.3386641%" y1="32.8263703%" x2="42.4488218%" y2="66.5898436%" id="linearGradient-9">
            <stop stop-color="#FDED00" offset="0%"/>
            <stop stop-color="#EAA600" offset="100%"/>
        </linearGradient>

        <linearGradient x1="41.4134346%" y1="61.5629456%" x2="72.0089911%" y2="24.7104165%" id="linearGradient-10">
            <stop stop-color="#FDED00" offset="0%"/>
            <stop stop-color="#EAA600" offset="100%"/>
        </linearGradient>
    </defs>

    <g id="Page-1" stroke="none" stroke-width="1" fill="none" fill-rule="evenodd">
        <g id="Logo" transform="translate(1, 0)" fill-rule="nonzero">
            <g id="Make-It-All-Logo">
                <g id="g10453" transform="translate(37.5569, 39) rotate(9.1407) translate(-37.5569, -39)translate(9.7523, 3.9722)">
                    <path d="M38.2287917,0 C34.4172495,1.55933182 31.4286091,4.93338694 30.5922947,9.27598877 C30.061314,12.0318813 30.5197089,14.7333346 31.6487333,17.0876384 C28.5756725,23.4941221 16.5690384,40.0223767 10.8742109,45.9538969 C5.68196097,46.6876444 1.27158611,50.5741394 0.225404163,56.0054489 C-0.568305517,60.1294256 0.78715495,64.1484684 3.45704914,66.9974601 L5.11232042,58.4023575 C5.52495478,56.2563433 7.58575963,54.861434 9.73177388,55.2748573 L15.9780955,56.4780455 C18.1241097,56.8906798 19.519019,58.9514847 19.1055957,61.0974989 L17.3808945,70.0555304 C21.1916477,68.4957252 24.1810771,65.1220646 25.0173915,60.7795417 C25.6817092,57.3301393 24.8580184,53.9414882 23.010237,51.2534475 C27.2620277,44.1321517 37.958962,28.8970286 43.5520116,24.2507499 C49.2468391,23.9919659 54.2592025,19.8900805 55.3834931,14.0500815 C56.1779917,9.92531588 54.8225313,5.907062 52.1526371,3.0580703 L50.4973658,11.6531729 C50.0839424,13.7991872 48.0239266,15.1940964 45.8779123,14.7806731 L39.6315907,13.577485 C37.4847875,13.1640616 36.0898782,11.1040458 36.5033016,8.95803152 L38.2287917,0 L38.2287917,0 Z" id="path1683" stroke="#606060" stroke-width="1.24999862" fill="url(#linearGradient-1)" stroke-linecap="round" stroke-linejoin="round"/>

                    <path d="M37.6552063,0.968783416 C33.844453,2.52819413 31.8680686,5.26870166 31.0317542,9.6112246 C30.5015625,12.3671172 30.9591685,14.9423343 32.0889818,17.2958491 C34.2073819,20.4107257 38.0189241,22.5204471 42.9784262,23.826202 C48.6740426,23.567418 53.6856171,20.3523415 54.8106966,14.5123424 C55.6051953,10.3875768 55.1357547,6.36932294 52.4658605,3.52033123 L50.8105892,12.1154339 C50.3971659,14.2614481 48.33715,15.6563574 46.1911357,15.242934 L39.1850304,13.9135098 C37.0390162,13.5000864 35.6433179,11.4392816 36.0567413,9.29326735 L37.6552063,0.968783416 L37.6552063,0.968783416 Z" id="path2940" fill="url(#linearGradient-2)"/>

                    <path d="M17.9978736,69.777732 C21.8094158,68.2179268 23.9120364,64.8442662 24.7483508,60.5017433 C25.2793315,57.7458507 24.8209365,55.1706336 23.6919121,52.8171187 C21.5727231,49.7022422 17.7611808,47.5925208 12.8016788,46.2867658 C7.10685131,46.5455499 2.09448789,49.7606264 0.970197342,55.6006254 C0.175698686,59.7253911 0.644350326,63.7436449 3.31424452,66.5926366 L4.9695158,57.997534 C5.38293913,55.8515198 7.44374399,54.4566105 9.58975823,54.8700338 L16.5958636,56.1994581 C18.7418778,56.6128814 20.1367871,58.6736863 19.7233637,60.8197005 L17.9978736,69.777732 L17.9978736,69.777732 Z" id="path4183" fill="url(#linearGradient-3)"/>
                </g>

                <g id="g10444" transform="translate(0, 4)">
                    <path d="M31.715126,35.1371204 L35.8358781,30.3361257 L58.4988305,53.6866709 C60.4869888,54.7787086 61.8421566,53.5762758 63.7032432,55.0503281 C65.6377315,56.7046659 66.9384401,59.5058418 69,62.1794677 L64.3725399,67 C61.4017468,64.9142478 57.2912552,63.3383778 56.3480836,61.2525462 C55.2620551,59.9005638 57.2170643,58.2938786 56.0047534,57.0692079 L31.715126,35.1371204 Z" id="path4806" stroke="#606060" stroke-width="0.85592" fill="url(#linearGradient-4)"/>

                    <path d="M37.2455052,29.0272689 C37.6519766,27.505564 33.8785011,27.2585649 31.6251498,24.8441689 C26.2581485,19.9748722 17.0908366,2.99467912 13.4981028,1.31174979 C5.0158729,-2.99127576 -3.34007462,3.9239039 1.35368375,12.8778186 C3.71200728,16.9131957 20.0063812,24.2620136 26.4191585,30.3361257 C28.2392034,32.1548648 29.4262578,37.0321036 30.7395946,36.5563723 C33.6677674,34.9385681 36.4704471,32.0468523 37.2455052,29.0272689 Z" id="path4807" stroke="#AA4200" stroke-width="0.85592" fill="url(#linearGradient-5)"/>

                    <path d="M57.3370325,53.6890535 C59.3251908,54.7810912 61.3133491,53.7057319 63.175225,55.1797842 C65.1097133,56.834122 66.5367042,59.3803568 68.5982642,62.0541415 L64.0970864,66.4921826 C61.1270826,64.406351 57.9029355,63.0855016 56.9597639,60.9996699 C55.8745247,59.6480053 56.8153284,56.8936877 55.6030175,55.6690171 L57.3370325,53.6890535 Z" id="path4810" fill="url(#linearGradient-6)"/>

                    <path d="M62.4238448,54.0448592 C60.6685197,54.1218975 59.0615764,54.8613063 57.8113807,56.2829408 C56.5603959,57.7045753 55.6898367,59.8775317 55.6898367,59.8775317 L56.2754712,60.6534741 C56.2754712,60.6534741 56.6030162,57.9221886 57.7908599,56.5712388 C58.9794928,55.2202889 61.9226616,54.7064355 63.0813025,54.6556061 L62.4238448,54.0448592 L62.4238448,54.0448592 Z" id="path4808" fill="#000000"/>

                    <path d="M64.0813011,66.9001679 L68.7687454,62.0558888 C68.7687454,62.0558888 67.3749036,61.1635153 67.3749036,60.5264007 C67.3749036,59.8886507 62.5611769,65.2428915 62.5611769,65.2428915 C62.814531,66.135265 63.8279471,66.135265 64.0813011,66.9001679 L64.0813011,66.9001679 Z" id="path6057" fill="url(#linearGradient-7)"/>

                    <path d="M3.77798983,14.5051533 C3.77798983,14.5051533 2.13110968,13.4853887 3.65131281,11.7008006 C5.17159486,9.91621245 28.989084,27.8907555 24.6812761,28.4006378 C17.0806551,22.9190058 5.55186269,15.7798591 3.77838446,14.5051533 L3.77798983,14.5051533 Z" id="path9175" fill="url(#linearGradient-8)"/>

                    <path d="M12.4546946,5.45275665 C11.0616421,2.90334506 13.0884743,2.39346274 14.9890242,3.28535969 C17.3954929,5.45275665 27.6575152,21.2606969 29.051357,22.5354027 C29.1776394,25.4676232 13.9748188,8.51205056 12.4546946,5.45275665 Z" id="path9176" fill="url(#linearGradient-9)"/>

                    <path d="M8.26133018,9.86617727 C6.57861741,7.50022801 8.1753003,5.8967196 10.1666157,6.55750167 C12.6551679,8.18563057 28.3954778,25.0768722 27.5043978,25.7511558 C27.0876659,26.4802399 10.1295202,12.723742 8.26133018,9.86617727 Z" id="path9177" fill="url(#linearGradient-10)"/>
                </g>
            </g>

            <g id="Make-It-All-Logo" transform="translate(402, 0)">
                <g id="g10453" transform="translate(37.5569, 39) rotate(9.1407) translate(-37.5569, -39)translate(9.7523, 3.9722)">
                    <path d="M38.2287917,0 C34.4172495,1.55933182 31.4286091,4.93338694 30.5922947,9.27598877 C30.061314,12.0318813 30.5197089,14.7333346 31.6487333,17.0876384 C28.5756725,23.4941221 16.5690384,40.0223767 10.8742109,45.9538969 C5.68196097,46.6876444 1.27158611,50.5741394 0.225404163,56.0054489 C-0.568305517,60.1294256 0.78715495,64.1484684 3.45704914,66.9974601 L5.11232042,58.4023575 C5.52495478,56.2563433 7.58575963,54.861434 9.73177388,55.2748573 L15.9780955,56.4780455 C18.1241097,56.8906798 19.519019,58.9514847 19.1055957,61.0974989 L17.3808945,70.0555304 C21.1916477,68.4957252 24.1810771,65.1220646 25.0173915,60.7795417 C25.6817092,57.3301393 24.8580184,53.9414882 23.010237,51.2534475 C27.2620277,44.1321517 37.958962,28.8970286 43.5520116,24.2507499 C49.2468391,23.9919659 54.2592025,19.8900805 55.3834931,14.0500815 C56.1779917,9.92531588 54.8225313,5.907062 52.1526371,3.0580703 L50.4973658,11.6531729 C50.0839424,13.7991872 48.0239266,15.1940964 45.8779123,14.7806731 L39.6315907,13.577485 C37.4847875,13.1640616 36.0898782,11.1040458 36.5033016,8.95803152 L38.2287917,0 L38.2287917,0 Z" id="path1683" stroke="#606060" stroke-width="1.24999862" fill="url(#linearGradient-1)" stroke-linecap="round" stroke-linejoin="round"/>

                    <path d="M37.6552063,0.968783416 C33.844453,2.52819413 31.8680686,5.26870166 31.0317542,9.6112246 C30.5015625,12.3671172 30.9591685,14.9423343 32.0889818,17.2958491 C34.2073819,20.4107257 38.0189241,22.5204471 42.9784262,23.826202 C48.6740426,23.567418 53.6856171,20.3523415 54.8106966,14.5123424 C55.6051953,10.3875768 55.1357547,6.36932294 52.4658605,3.52033123 L50.8105892,12.1154339 C50.3971659,14.2614481 48.33715,15.6563574 46.1911357,15.242934 L39.1850304,13.9135098 C37.0390162,13.5000864 35.6433179,11.4392816 36.0567413,9.29326735 L37.6552063,0.968783416 L37.6552063,0.968783416 Z" id="path2940" fill="url(#linearGradient-2)"/>

                    <path d="M17.9978736,69.777732 C21.8094158,68.2179268 23.9120364,64.8442662 24.7483508,60.5017433 C25.2793315,57.7458507 24.8209365,55.1706336 23.6919121,52.8171187 C21.5727231,49.7022422 17.7611808,47.5925208 12.8016788,46.2867658 C7.10685131,46.5455499 2.09448789,49.7606264 0.970197342,55.6006254 C0.175698686,59.7253911 0.644350326,63.7436449 3.31424452,66.5926366 L4.9695158,57.997534 C5.38293913,55.8515198 7.44374399,54.4566105 9.58975823,54.8700338 L16.5958636,56.1994581 C18.7418778,56.6128814 20.1367871,58.6736863 19.7233637,60.8197005 L17.9978736,69.777732 L17.9978736,69.777732 Z" id="path4183" fill="url(#linearGradient-3)"/>
                </g>

                <g id="g10444" transform="translate(0, 4)">
                    <path d="M31.715126,35.1371204 L35.8358781,30.3361257 L58.4988305,53.6866709 C60.4869888,54.7787086 61.8421566,53.5762758 63.7032432,55.0503281 C65.6377315,56.7046659 66.9384401,59.5058418 69,62.1794677 L64.3725399,67 C61.4017468,64.9142478 57.2912552,63.3383778 56.3480836,61.2525462 C55.2620551,59.9005638 57.2170643,58.2938786 56.0047534,57.0692079 L31.715126,35.1371204 Z" id="path4806" stroke="#606060" stroke-width="0.85592" fill="url(#linearGradient-4)"/>

                    <path d="M37.2455052,29.0272689 C37.6519766,27.505564 33.8785011,27.2585649 31.6251498,24.8441689 C26.2581485,19.9748722 17.0908366,2.99467912 13.4981028,1.31174979 C5.0158729,-2.99127576 -3.34007462,3.9239039 1.35368375,12.8778186 C3.71200728,16.9131957 20.0063812,24.2620136 26.4191585,30.3361257 C28.2392034,32.1548648 29.4262578,37.0321036 30.7395946,36.5563723 C33.6677674,34.9385681 36.4704471,32.0468523 37.2455052,29.0272689 Z" id="path4807" stroke="#AA4200" stroke-width="0.85592" fill="url(#linearGradient-5)"/>

                    <path d="M57.3370325,53.6890535 C59.3251908,54.7810912 61.3133491,53.7057319 63.175225,55.1797842 C65.1097133,56.834122 66.5367042,59.3803568 68.5982642,62.0541415 L64.0970864,66.4921826 C61.1270826,64.406351 57.9029355,63.0855016 56.9597639,60.9996699 C55.8745247,59.6480053 56.8153284,56.8936877 55.6030175,55.6690171 L57.3370325,53.6890535 Z" id="path4810" fill="url(#linearGradient-6)"/>

                    <path d="M62.4238448,54.0448592 C60.6685197,54.1218975 59.0615764,54.8613063 57.8113807,56.2829408 C56.5603959,57.7045753 55.6898367,59.8775317 55.6898367,59.8775317 L56.2754712,60.6534741 C56.2754712,60.6534741 56.6030162,57.9221886 57.7908599,56.5712388 C58.9794928,55.2202889 61.9226616,54.7064355 63.0813025,54.6556061 L62.4238448,54.0448592 L62.4238448,54.0448592 Z" id="path4808" fill="#000000"/>

                    <path d="M64.0813011,66.9001679 L68.7687454,62.0558888 C68.7687454,62.0558888 67.3749036,61.1635153 67.3749036,60.5264007 C67.3749036,59.8886507 62.5611769,65.2428915 62.5611769,65.2428915 C62.814531,66.135265 63.8279471,66.135265 64.0813011,66.9001679 L64.0813011,66.9001679 Z" id="path6057" fill="url(#linearGradient-7)"/>

                    <path d="M3.77798983,14.5051533 C3.77798983,14.5051533 2.13110968,13.4853887 3.65131281,11.7008006 C5.17159486,9.91621245 28.989084,27.8907555 24.6812761,28.4006378 C17.0806551,22.9190058 5.55186269,15.7798591 3.77838446,14.5051533 L3.77798983,14.5051533 Z" id="path9175" fill="url(#linearGradient-8)"/>

                    <path d="M12.4546946,5.45275665 C11.0616421,2.90334506 13.0884743,2.39346274 14.9890242,3.28535969 C17.3954929,5.45275665 27.6575152,21.2606969 29.051357,22.5354027 C29.1776394,25.4676232 13.9748188,8.51205056 12.4546946,5.45275665 Z" id="path9176" fill="url(#linearGradient-9)"/>

                    <path d="M8.26133018,9.86617727 C6.57861741,7.50022801 8.1753003,5.8967196 10.1666157,6.55750167 C12.6551679,8.18563057 28.3954778,25.0768722 27.5043978,25.7511558 C27.0876659,26.4802399 10.1295202,12.723742 8.26133018,9.86617727 Z" id="path9177" fill="url(#linearGradient-10)"/>
                </g>
            </g>

            <g id="Make-It-All" class="fill primary" transform="translate(93.304, 15.472)" fill="#000">
                <path d="M36.608,46.528 L49.408,46.528 L49.408,17.344 C49.408,12.096 49.152,8.064 46.4,4.672 C43.968,1.6 40.384,0 36.096,0 C31.232,0 27.264,2.368 24.704,6.656 C22.144,2.368 18.112,0 13.248,0 C8.384,0 4.416,2.176 2.048,6.08 C0.192,9.152 0,12.8 0,17.344 L0,46.528 L12.8,46.528 L12.8,17.024 C12.8,14.208 13.376,12.864 15.616,12.864 C17.856,12.864 18.24,14.4 18.24,17.024 L18.24,46.528 L31.168,46.528 L31.168,17.024 C31.168,14.208 31.744,12.864 33.984,12.864 C36.224,12.864 36.608,14.4 36.608,17.024 L36.608,46.528 Z" id="Path"/>

                <path d="M85.04,46.528 L85.04,35.904 C85.04,35.136 85.04,34.304 85.04,33.536 C85.04,30.08 84.848,26.56 83.056,22.528 C80.368,16.64 74.672,13.056 67.888,13.056 C63.344,13.056 59.12,14.784 55.856,18.048 C52.72,21.184 50.992,25.408 50.992,29.888 C50.992,39.424 58.416,46.848 67.824,46.848 C68.592,46.848 69.488,46.784 70.448,46.72 L70.448,34.048 C69.488,34.432 68.72,34.624 68.016,34.624 C65.328,34.624 63.28,32.64 63.28,29.888 C63.28,27.328 65.392,25.152 68.016,25.152 C71.984,25.152 72.88,28.16 72.88,33.472 L72.88,46.528 L85.04,46.528 Z" id="Path"/>

                <polygon id="Path" points="100.256 46.528 100.256 26.304 107.552 46.528 120.672 46.528 112.416 25.344 118.368 13.952 105.76 13.952 100.256 24.256 100.256 0.896 88.096 0.896 88.096 46.528"/>

                <path d="M146.96,43.392 L139.92,34.752 C139.216,36.096 137.424,36.992 135.952,36.992 C132.88,36.992 130.768,34.496 130.768,29.696 C130.768,25.152 133.072,22.464 136.208,22.464 C138.768,22.464 140.432,23.808 140.432,25.984 C140.432,26.048 140.432,26.048 140.432,26.112 L134.992,26.112 C133.84,26.112 133.328,27.136 133.328,29.184 C133.328,31.232 133.84,32.192 134.992,32.192 L152.976,32.192 C152.976,31.936 152.976,31.744 152.976,31.488 C152.976,20.224 145.424,13.056 135.76,13.056 C131.28,13.056 126.992,14.848 123.664,18.176 C120.4,21.44 118.608,25.792 118.608,30.272 C118.608,36.032 121.36,41.28 126.224,44.48 C129.104,46.4 132.432,47.424 135.76,47.424 C139.92,47.424 143.504,46.144 146.96,43.392 Z" id="Path"/>

                <polygon id="Path" points="153.6 34.688 167.232 34.688 167.232 25.472 153.6 25.472"/>

                <polygon id="Path" points="170.288 46.528 183.92 46.528 183.92 0.896 170.288 0.896"/>

                <path d="M205.536,27.712 L205.536,13.952 L200.16,13.952 L200.16,1.792 L187.68,1.792 L187.68,29.824 C187.68,40.64 194.528,47.488 203.808,47.488 C204.384,47.488 204.96,47.488 205.536,47.424 L205.536,34.24 C205.28,34.24 205.024,34.24 204.768,34.24 C201.696,34.24 200.096,32.448 200.096,28.864 C200.096,28.544 200.096,28.096 200.16,27.712 L205.536,27.712 Z" id="Path"/>

                <polygon id="Path" points="207.184 34.688 220.816 34.688 220.816 25.472 207.184 25.472"/>

                <path d="M223.872,46.528 L237.824,46.528 L237.824,35.84 L241.344,35.84 L241.344,23.744 L237.824,23.744 L237.824,18.944 C237.824,15.872 238.144,13.952 240.512,13.952 C242.688,13.952 243.392,15.616 243.392,18.944 L243.392,46.528 L256.768,46.528 L256.768,22.208 C256.768,16.576 256.448,11.648 253.44,7.04 C250.496,2.56 245.696,0 240.32,0 C232.64,0 226.816,4.608 224.704,12.8 C223.872,16.064 223.872,19.136 223.872,22.208 L223.872,46.528 Z" id="Path"/>

                <polygon id="Path" points="272.688 46.528 272.688 0.896 260.528 0.896 260.528 46.528"/>

                <polygon id="Path" points="287.904 46.528 287.904 0.896 275.744 0.896 275.744 46.528"/>
            </g>
        </g>
    </g>
</svg>
