<?xml version="1.0" encoding="UTF-8"?>

<!DOCTYPE svg>

<svg version="1.1" xmlns="http://www.w3.org/2000/svg" viewBox="0 0 26.1224 25.7754" preserveAspectRatio="xMinYMin meet">
    <g>
        <rect height="25.7754" opacity="0" width="26.1224" x="0" y="0"/>

        <path class="fill secondary" d="M12.8766 25.7611C19.9326 25.7611 25.7611 19.9326 25.7611 12.8846C25.7611 5.82851 19.9246 0 12.8668 0C5.81875 0 0 5.82851 0 12.8846C0 19.9326 5.82851 25.7611 12.8766 25.7611ZM12.8766 23.5352C6.9785 23.5352 2.23397 18.7826 2.23397 12.8846C2.23397 6.9785 6.96874 2.23397 12.8668 2.23397C18.7729 2.23397 23.5272 6.9785 23.5272 12.8846C23.5272 18.7826 18.7826 23.5352 12.8766 23.5352Z"/>

        <path class="fill primary" d="M11.5137 18.8664C11.9172 18.8664 12.2558 18.674 12.4918 18.3103L18.3287 9.20155C18.475 8.97811 18.6019 8.71288 18.6019 8.46268C18.6019 7.91561 18.1125 7.54062 17.601 7.54062C17.2686 7.54062 16.9617 7.73573 16.7365 8.09921L11.4781 16.4725L8.89647 13.259C8.62674 12.9146 8.35975 12.7994 8.03163 12.7994C7.49257 12.7994 7.06171 13.2348 7.06171 13.7801C7.06171 14.0461 7.16464 14.2963 7.35077 14.5348L10.4965 18.3156C10.7963 18.6935 11.1066 18.8664 11.5137 18.8664Z"/>
    </g>
</svg>
