<?xml version="1.0" encoding="UTF-8"?>

<!DOCTYPE svg>

<svg version="1.1" xmlns="http://www.w3.org/2000/svg" viewBox="0 0 34.8922 35.7406" preserveAspectRatio="xMinYMin meet">
    <g>
        <rect height="35.7406" opacity="0" width="34.8922" x="0" y="0"/>

        <path class="fill primary" d="M17.2703 22.2881C18.3381 22.3058 19.4199 22.0334 20.7842 21.4076L33.2777 15.6957C34.0937 15.3223 34.5308 14.6012 34.5308 13.8234C34.5308 13.0537 34.0937 12.3184 33.2777 11.9432L20.7842 6.23125C19.4199 5.61348 18.3381 5.34102 17.2703 5.35078C16.1928 5.34102 15.1189 5.61348 13.7547 6.23125L1.26113 11.9432C0.437107 12.3184 0 13.0537 0 13.8234C0 14.6012 0.437107 15.3223 1.26113 15.6957L13.7547 21.4076C15.1189 22.0334 16.1928 22.3058 17.2703 22.2881ZM17.2703 20.174C16.4408 20.174 15.6504 19.9725 14.576 19.4752L3.07849 14.2295C2.85993 14.1309 2.75329 13.9887 2.75329 13.8234C2.75329 13.6502 2.85993 13.508 3.07849 13.4094L14.576 8.17166C15.6504 7.67616 16.4408 7.47284 17.2703 7.47284C18.0998 7.47284 18.8805 7.67616 19.9549 8.17166L31.4621 13.4094C31.6709 13.508 31.7775 13.6502 31.7775 13.8234C31.7775 13.9887 31.6709 14.1309 31.4621 14.2295L19.9549 19.4752C18.8805 19.9725 18.0998 20.174 17.2703 20.174ZM5.06309 23.1877C5.06309 26.889 9.91679 30.1197 17.2703 30.1197C24.6158 30.1197 29.4678 26.889 29.4678 23.1877L29.4678 16.6596L27.3807 16.6596L27.3807 23.1877C27.3807 25.6426 23.4418 28.1346 17.2703 28.1346C11.0971 28.1346 7.15819 25.6426 7.15819 23.1877L7.15819 16.6596L5.06309 16.6596ZM17.3041 15.325C18.731 15.325 20.0398 14.6756 20.0398 13.8154C20.0398 12.9793 18.7293 12.3369 17.3041 12.3369C15.8709 12.3369 14.5523 12.9828 14.5523 13.8154C14.5523 14.6756 15.8674 15.325 17.3041 15.325ZM9.76658 18.3996L17.0766 14.6521L16.3561 13.3586L8.12635 17.5334ZM8.12635 30.5353L9.76658 30.5371L9.76658 18.3996L8.12635 17.577ZM7.0539 30.7051L7.0539 34.0889C7.0539 35.1002 7.69608 35.7406 8.70565 35.7406L9.17576 35.7406C10.1773 35.7406 10.8275 35.1002 10.8275 34.0889L10.8275 30.7051C10.8275 29.7035 10.1773 29.0613 9.17576 29.0613L8.70565 29.0613C7.69608 29.0613 7.0539 29.7035 7.0539 30.7051Z"/>
    </g>
</svg>
