<?xml version="1.0" encoding="UTF-8"?>

<!DOCTYPE svg>

<svg version="1.1" xmlns="http://www.w3.org/2000/svg" viewBox="0 0 37.6953 20.7324" preserveAspectRatio="xMinYMin meet">
    <g>
        <rect height="20.7324" opacity="0" width="37.6953" x="0" y="0"/>

        <path class="fill secondary" d="M37.334 17.7734C37.334 18.8672 36.6699 19.4043 35.3418 19.4043L28.0919 19.4043C28.3734 18.9921 28.5153 18.5005 28.53 17.959L35.5859 17.959C35.791 17.959 35.8789 17.8809 35.8789 17.6855C35.8789 15.2637 33.1152 13.0078 29.9219 13.0078C28.7956 13.0078 27.7227 13.2884 26.809 13.7621C26.4986 13.3875 26.1381 13.0306 25.7333 12.6992C26.9229 11.99 28.3654 11.5625 29.9219 11.5625C34.0137 11.5625 37.334 14.5312 37.334 17.7734ZM33.584 6.42578C33.584 8.64258 31.9434 10.4492 29.9219 10.4492C27.9199 10.4492 26.2598 8.65234 26.2598 6.44531C26.2598 4.28711 27.9199 2.50977 29.9219 2.50977C31.9531 2.50977 33.584 4.25781 33.584 6.42578ZM27.7148 6.44531C27.7148 7.85156 28.7305 8.99414 29.9219 8.99414C31.123 8.99414 32.1387 7.85156 32.1387 6.42578C32.1387 5.04883 31.1523 3.96484 29.9219 3.96484C28.7207 3.96484 27.7148 5.06836 27.7148 6.44531Z"/>

        <path class="fill secondary" d="M11.598 12.7003C11.1942 13.0313 10.8344 13.3877 10.5245 13.7619C9.61097 13.2884 8.53826 13.0078 7.41211 13.0078C4.21875 13.0078 1.45508 15.2637 1.45508 17.6855C1.45508 17.8809 1.54297 17.959 1.74805 17.959L8.80394 17.959C8.81871 18.5005 8.9606 18.9921 9.24162 19.4043L1.98242 19.4043C0.664062 19.4043 0 18.8672 0 17.7734C0 14.5312 3.32031 11.5625 7.41211 11.5625C8.96558 11.5625 10.4078 11.9904 11.598 12.7003ZM11.084 6.42578C11.084 8.64258 9.43359 10.4492 7.42188 10.4492C5.41016 10.4492 3.75977 8.65234 3.75977 6.44531C3.75977 4.28711 5.41016 2.50977 7.42188 2.50977C9.45312 2.50977 11.084 4.25781 11.084 6.42578ZM5.21484 6.44531C5.21484 7.85156 6.2207 8.99414 7.42188 8.99414C8.62305 8.99414 9.63867 7.85156 9.63867 6.42578C9.63867 5.04883 8.65234 3.96484 7.42188 3.96484C6.21094 3.96484 5.21484 5.06836 5.21484 6.44531Z"/>

        <path class="fill primary" d="M18.6719 10.3613C20.9961 10.3613 22.8906 8.30078 22.8906 5.78125C22.8906 3.28125 21.0059 1.31836 18.6719 1.31836C16.3477 1.31836 14.4531 3.32031 14.4531 5.80078C14.4531 8.31055 16.3477 10.3613 18.6719 10.3613ZM18.6719 8.88672C17.2461 8.88672 16.0254 7.5293 16.0254 5.80078C16.0254 4.10156 17.2168 2.79297 18.6719 2.79297C20.127 2.79297 21.3184 4.07227 21.3184 5.78125C21.3184 7.50977 20.1074 8.88672 18.6719 8.88672ZM12.5293 19.4043L24.7949 19.4043C26.4258 19.4043 27.1973 18.916 27.1973 17.8418C27.1973 15.2832 23.9648 11.582 18.6621 11.582C13.3691 11.582 10.1367 15.2832 10.1367 17.8418C10.1367 18.916 10.9082 19.4043 12.5293 19.4043ZM12.0605 17.9297C11.8066 17.9297 11.709 17.8613 11.709 17.6562C11.709 16.0449 14.1895 13.0566 18.6621 13.0566C23.1445 13.0566 25.625 16.0449 25.625 17.6562C25.625 17.8613 25.5176 17.9297 25.2637 17.9297Z"/>
    </g>
</svg>
